%TF.GenerationSoftware,KiCad,Pcbnew,5.1.5+dfsg1-2build2*%
%TF.CreationDate,2021-08-10T12:38:11+02:00*%
%TF.ProjectId,ledcube_5,6c656463-7562-4655-9f35-2e6b69636164,rev?*%
%TF.SameCoordinates,Original*%
%TF.FileFunction,Copper,L1,Top*%
%TF.FilePolarity,Positive*%
%FSLAX46Y46*%
G04 Gerber Fmt 4.6, Leading zero omitted, Abs format (unit mm)*
G04 Created by KiCad (PCBNEW 5.1.5+dfsg1-2build2) date 2021-08-10 12:38:11*
%MOMM*%
%LPD*%
G04 APERTURE LIST*
%TA.AperFunction,ComponentPad*%
%ADD10O,1.600000X1.600000*%
%TD*%
%TA.AperFunction,ComponentPad*%
%ADD11C,1.600000*%
%TD*%
%TA.AperFunction,ComponentPad*%
%ADD12O,1.700000X1.700000*%
%TD*%
%TA.AperFunction,ComponentPad*%
%ADD13R,1.700000X1.700000*%
%TD*%
%TA.AperFunction,ComponentPad*%
%ADD14R,1.600000X1.600000*%
%TD*%
%TA.AperFunction,ComponentPad*%
%ADD15C,2.000000*%
%TD*%
%TA.AperFunction,ComponentPad*%
%ADD16R,1.050000X1.500000*%
%TD*%
%TA.AperFunction,ComponentPad*%
%ADD17O,1.050000X1.500000*%
%TD*%
%TA.AperFunction,Conductor*%
%ADD18C,0.250000*%
%TD*%
G04 APERTURE END LIST*
D10*
%TO.P,R30,2*%
%TO.N,Net-(Q5-Pad2)*%
X190500000Y-99060000D03*
D11*
%TO.P,R30,1*%
%TO.N,/U4_E*%
X200660000Y-99060000D03*
%TD*%
D10*
%TO.P,R29,2*%
%TO.N,Net-(Q4-Pad2)*%
X203200000Y-99060000D03*
D11*
%TO.P,R29,1*%
%TO.N,/U4_D*%
X213360000Y-99060000D03*
%TD*%
D10*
%TO.P,R28,2*%
%TO.N,Net-(Q3-Pad2)*%
X215900000Y-99060000D03*
D11*
%TO.P,R28,1*%
%TO.N,/U4_C*%
X226060000Y-99060000D03*
%TD*%
D10*
%TO.P,R27,2*%
%TO.N,Net-(Q2-Pad2)*%
X218440000Y-109220000D03*
D11*
%TO.P,R27,1*%
%TO.N,/U4_B*%
X228600000Y-109220000D03*
%TD*%
D10*
%TO.P,R26,2*%
%TO.N,Net-(Q1-Pad2)*%
X215900000Y-109220000D03*
D11*
%TO.P,R26,1*%
%TO.N,/U4_A*%
X205740000Y-109220000D03*
%TD*%
D12*
%TO.P,J1,5*%
%TO.N,GND*%
X248666000Y-92202000D03*
%TO.P,J1,4*%
%TO.N,/A12*%
X248666000Y-89662000D03*
%TO.P,J1,3*%
%TO.N,/A4*%
X248666000Y-87122000D03*
%TO.P,J1,2*%
%TO.N,/A0*%
X248666000Y-84582000D03*
D13*
%TO.P,J1,1*%
%TO.N,+5V*%
X248666000Y-82042000D03*
%TD*%
D10*
%TO.P,U1,16*%
%TO.N,+5V*%
X187198000Y-65532000D03*
%TO.P,U1,8*%
%TO.N,GND*%
X204978000Y-73152000D03*
%TO.P,U1,15*%
%TO.N,/U1_A*%
X189738000Y-65532000D03*
%TO.P,U1,7*%
%TO.N,/U1_H*%
X202438000Y-73152000D03*
%TO.P,U1,14*%
%TO.N,/U3_HH*%
X192278000Y-65532000D03*
%TO.P,U1,6*%
%TO.N,/U1_G*%
X199898000Y-73152000D03*
%TO.P,U1,13*%
%TO.N,GND*%
X194818000Y-65532000D03*
%TO.P,U1,5*%
%TO.N,/U1_F*%
X197358000Y-73152000D03*
%TO.P,U1,12*%
%TO.N,/A4*%
X197358000Y-65532000D03*
%TO.P,U1,4*%
%TO.N,/U1_E*%
X194818000Y-73152000D03*
%TO.P,U1,11*%
%TO.N,/A0*%
X199898000Y-65532000D03*
%TO.P,U1,3*%
%TO.N,/U1_D*%
X192278000Y-73152000D03*
%TO.P,U1,10*%
%TO.N,+5V*%
X202438000Y-65532000D03*
%TO.P,U1,2*%
%TO.N,/U1_C*%
X189738000Y-73152000D03*
%TO.P,U1,9*%
%TO.N,/U1_HH*%
X204978000Y-65532000D03*
D14*
%TO.P,U1,1*%
%TO.N,/U1_B*%
X187198000Y-73152000D03*
%TD*%
D15*
%TO.P,J6,1*%
%TO.N,Net-(J6-Pad1)*%
X249400000Y-102870000D03*
%TD*%
%TO.P,J5,1*%
%TO.N,Net-(J5-Pad1)*%
X245350000Y-106920000D03*
%TD*%
%TO.P,J4,1*%
%TO.N,Net-(J4-Pad1)*%
X245350000Y-102870000D03*
%TD*%
%TO.P,J3,1*%
%TO.N,Net-(J3-Pad1)*%
X241300000Y-106920000D03*
%TD*%
%TO.P,J2,1*%
%TO.N,Net-(J2-Pad1)*%
X241300000Y-102870000D03*
%TD*%
D10*
%TO.P,R25,2*%
%TO.N,Net-(D25-Pad1)*%
X239268000Y-113284000D03*
D11*
%TO.P,R25,1*%
%TO.N,/U4_F*%
X249428000Y-113284000D03*
%TD*%
D10*
%TO.P,R24,2*%
%TO.N,Net-(D24-Pad1)*%
X239268000Y-95758000D03*
D11*
%TO.P,R24,1*%
%TO.N,/U4_G*%
X249428000Y-95758000D03*
%TD*%
D10*
%TO.P,R23,2*%
%TO.N,Net-(D23-Pad1)*%
X239268000Y-78232000D03*
D11*
%TO.P,R23,1*%
%TO.N,/U4_H*%
X249428000Y-78232000D03*
%TD*%
D10*
%TO.P,R22,2*%
%TO.N,Net-(D22-Pad1)*%
X239268000Y-60706000D03*
D11*
%TO.P,R22,1*%
%TO.N,/U3_A*%
X249428000Y-60706000D03*
%TD*%
D10*
%TO.P,R21,2*%
%TO.N,Net-(D21-Pad1)*%
X239268000Y-43180000D03*
D11*
%TO.P,R21,1*%
%TO.N,/U3_B*%
X249428000Y-43180000D03*
%TD*%
D10*
%TO.P,R20,2*%
%TO.N,Net-(D20-Pad1)*%
X221742000Y-113284000D03*
D11*
%TO.P,R20,1*%
%TO.N,/U3_G*%
X231902000Y-113284000D03*
%TD*%
D10*
%TO.P,R19,2*%
%TO.N,Net-(D19-Pad1)*%
X221742000Y-95758000D03*
D11*
%TO.P,R19,1*%
%TO.N,/U3_F*%
X231902000Y-95758000D03*
%TD*%
D10*
%TO.P,R18,2*%
%TO.N,Net-(D18-Pad1)*%
X221742000Y-78232000D03*
D11*
%TO.P,R18,1*%
%TO.N,/U3_E*%
X231902000Y-78232000D03*
%TD*%
D10*
%TO.P,R17,2*%
%TO.N,Net-(D17-Pad1)*%
X221742000Y-60706000D03*
D11*
%TO.P,R17,1*%
%TO.N,/U3_D*%
X231902000Y-60706000D03*
%TD*%
D10*
%TO.P,R16,2*%
%TO.N,Net-(D16-Pad1)*%
X221742000Y-43180000D03*
D11*
%TO.P,R16,1*%
%TO.N,/U3_C*%
X231902000Y-43180000D03*
%TD*%
D10*
%TO.P,R15,2*%
%TO.N,Net-(D15-Pad1)*%
X204216000Y-113284000D03*
D11*
%TO.P,R15,1*%
%TO.N,/U3_H*%
X214376000Y-113284000D03*
%TD*%
D10*
%TO.P,R14,2*%
%TO.N,Net-(D14-Pad1)*%
X204216000Y-95758000D03*
D11*
%TO.P,R14,1*%
%TO.N,/U1_A*%
X214376000Y-95758000D03*
%TD*%
D10*
%TO.P,R13,2*%
%TO.N,Net-(D13-Pad1)*%
X204216000Y-78232000D03*
D11*
%TO.P,R13,1*%
%TO.N,/U1_B*%
X214376000Y-78232000D03*
%TD*%
D10*
%TO.P,R12,2*%
%TO.N,Net-(D12-Pad1)*%
X204216000Y-60706000D03*
D11*
%TO.P,R12,1*%
%TO.N,/U1_C*%
X214376000Y-60706000D03*
%TD*%
D10*
%TO.P,R11,2*%
%TO.N,Net-(D11-Pad1)*%
X204216000Y-43180000D03*
D11*
%TO.P,R11,1*%
%TO.N,/U1_D*%
X214376000Y-43180000D03*
%TD*%
%TO.P,R10,1*%
%TO.N,/U2_A*%
X196850000Y-113284000D03*
D10*
%TO.P,R10,2*%
%TO.N,Net-(D10-Pad1)*%
X186690000Y-113284000D03*
%TD*%
%TO.P,R9,2*%
%TO.N,Net-(D9-Pad1)*%
X186690000Y-95758000D03*
D11*
%TO.P,R9,1*%
%TO.N,/U1_H*%
X196850000Y-95758000D03*
%TD*%
D10*
%TO.P,R8,2*%
%TO.N,Net-(D8-Pad1)*%
X186690000Y-78232000D03*
D11*
%TO.P,R8,1*%
%TO.N,/U1_G*%
X196850000Y-78232000D03*
%TD*%
D10*
%TO.P,R7,2*%
%TO.N,Net-(D7-Pad1)*%
X186690000Y-60706000D03*
D11*
%TO.P,R7,1*%
%TO.N,/U1_F*%
X196850000Y-60706000D03*
%TD*%
D10*
%TO.P,R6,2*%
%TO.N,Net-(D6-Pad1)*%
X186690000Y-43180000D03*
D11*
%TO.P,R6,1*%
%TO.N,/U1_E*%
X196850000Y-43180000D03*
%TD*%
D10*
%TO.P,R5,2*%
%TO.N,Net-(D5-Pad1)*%
X169164000Y-113284000D03*
D11*
%TO.P,R5,1*%
%TO.N,/U2_B*%
X179324000Y-113284000D03*
%TD*%
D10*
%TO.P,R4,2*%
%TO.N,Net-(D4-Pad1)*%
X169164000Y-95758000D03*
D11*
%TO.P,R4,1*%
%TO.N,/U2_C*%
X179324000Y-95758000D03*
%TD*%
D10*
%TO.P,R3,2*%
%TO.N,Net-(D3-Pad1)*%
X169164000Y-78232000D03*
D11*
%TO.P,R3,1*%
%TO.N,/U2_D*%
X179324000Y-78232000D03*
%TD*%
D10*
%TO.P,R2,2*%
%TO.N,Net-(D2-Pad1)*%
X169164000Y-60706000D03*
D11*
%TO.P,R2,1*%
%TO.N,/U2_E*%
X179324000Y-60706000D03*
%TD*%
D10*
%TO.P,R1,2*%
%TO.N,Net-(D1-Pad1)*%
X168910000Y-43180000D03*
D11*
%TO.P,R1,1*%
%TO.N,/U2_F*%
X179070000Y-43180000D03*
%TD*%
D10*
%TO.P,U4,16*%
%TO.N,+5V*%
X222504000Y-83058000D03*
%TO.P,U4,8*%
%TO.N,GND*%
X240284000Y-90678000D03*
%TO.P,U4,15*%
%TO.N,/U4_A*%
X225044000Y-83058000D03*
%TO.P,U4,7*%
%TO.N,/U4_H*%
X237744000Y-90678000D03*
%TO.P,U4,14*%
%TO.N,/A12*%
X227584000Y-83058000D03*
%TO.P,U4,6*%
%TO.N,/U4_G*%
X235204000Y-90678000D03*
%TO.P,U4,13*%
%TO.N,GND*%
X230124000Y-83058000D03*
%TO.P,U4,5*%
%TO.N,/U4_F*%
X232664000Y-90678000D03*
%TO.P,U4,12*%
%TO.N,/A4*%
X232664000Y-83058000D03*
%TO.P,U4,4*%
%TO.N,/U4_E*%
X230124000Y-90678000D03*
%TO.P,U4,11*%
%TO.N,/A0*%
X235204000Y-83058000D03*
%TO.P,U4,3*%
%TO.N,/U4_D*%
X227584000Y-90678000D03*
%TO.P,U4,10*%
%TO.N,+5V*%
X237744000Y-83058000D03*
%TO.P,U4,2*%
%TO.N,/U4_C*%
X225044000Y-90678000D03*
%TO.P,U4,9*%
%TO.N,/U4_HH*%
X240284000Y-83058000D03*
D14*
%TO.P,U4,1*%
%TO.N,/U4_B*%
X222504000Y-90678000D03*
%TD*%
D10*
%TO.P,U3,16*%
%TO.N,+5V*%
X240030000Y-73152000D03*
%TO.P,U3,8*%
%TO.N,GND*%
X222250000Y-65532000D03*
%TO.P,U3,15*%
%TO.N,/U3_A*%
X237490000Y-73152000D03*
%TO.P,U3,7*%
%TO.N,/U3_H*%
X224790000Y-65532000D03*
%TO.P,U3,14*%
%TO.N,/U4_HH*%
X234950000Y-73152000D03*
%TO.P,U3,6*%
%TO.N,/U3_G*%
X227330000Y-65532000D03*
%TO.P,U3,13*%
%TO.N,GND*%
X232410000Y-73152000D03*
%TO.P,U3,5*%
%TO.N,/U3_F*%
X229870000Y-65532000D03*
%TO.P,U3,12*%
%TO.N,/A4*%
X229870000Y-73152000D03*
%TO.P,U3,4*%
%TO.N,/U3_E*%
X232410000Y-65532000D03*
%TO.P,U3,11*%
%TO.N,/A0*%
X227330000Y-73152000D03*
%TO.P,U3,3*%
%TO.N,/U3_D*%
X234950000Y-65532000D03*
%TO.P,U3,10*%
%TO.N,+5V*%
X224790000Y-73152000D03*
%TO.P,U3,2*%
%TO.N,/U3_C*%
X237490000Y-65532000D03*
%TO.P,U3,9*%
%TO.N,/U3_HH*%
X222250000Y-73152000D03*
D14*
%TO.P,U3,1*%
%TO.N,/U3_B*%
X240030000Y-65532000D03*
%TD*%
D10*
%TO.P,U2,16*%
%TO.N,+5V*%
X187198000Y-83058000D03*
%TO.P,U2,8*%
%TO.N,GND*%
X204978000Y-90678000D03*
%TO.P,U2,15*%
%TO.N,/U2_A*%
X189738000Y-83058000D03*
%TO.P,U2,7*%
%TO.N,Net-(U2-Pad7)*%
X202438000Y-90678000D03*
%TO.P,U2,14*%
%TO.N,/U1_HH*%
X192278000Y-83058000D03*
%TO.P,U2,6*%
%TO.N,Net-(U2-Pad6)*%
X199898000Y-90678000D03*
%TO.P,U2,13*%
%TO.N,GND*%
X194818000Y-83058000D03*
%TO.P,U2,5*%
%TO.N,/U2_F*%
X197358000Y-90678000D03*
%TO.P,U2,12*%
%TO.N,/A4*%
X197358000Y-83058000D03*
%TO.P,U2,4*%
%TO.N,/U2_E*%
X194818000Y-90678000D03*
%TO.P,U2,11*%
%TO.N,/A0*%
X199898000Y-83058000D03*
%TO.P,U2,3*%
%TO.N,/U2_D*%
X192278000Y-90678000D03*
%TO.P,U2,10*%
%TO.N,+5V*%
X202438000Y-83058000D03*
%TO.P,U2,2*%
%TO.N,/U2_C*%
X189738000Y-90678000D03*
%TO.P,U2,9*%
%TO.N,Net-(U2-Pad9)*%
X204978000Y-83058000D03*
D14*
%TO.P,U2,1*%
%TO.N,/U2_B*%
X187198000Y-90678000D03*
%TD*%
D16*
%TO.P,Q5,1*%
%TO.N,GND*%
X191262000Y-104394000D03*
D17*
%TO.P,Q5,3*%
%TO.N,Net-(J6-Pad1)*%
X193802000Y-104394000D03*
%TO.P,Q5,2*%
%TO.N,Net-(Q5-Pad2)*%
X192532000Y-104394000D03*
%TD*%
D16*
%TO.P,Q4,1*%
%TO.N,GND*%
X201422000Y-104394000D03*
D17*
%TO.P,Q4,3*%
%TO.N,Net-(J5-Pad1)*%
X203962000Y-104394000D03*
%TO.P,Q4,2*%
%TO.N,Net-(Q4-Pad2)*%
X202692000Y-104394000D03*
%TD*%
D16*
%TO.P,Q3,1*%
%TO.N,GND*%
X211582000Y-104394000D03*
D17*
%TO.P,Q3,3*%
%TO.N,Net-(J4-Pad1)*%
X214122000Y-104394000D03*
%TO.P,Q3,2*%
%TO.N,Net-(Q3-Pad2)*%
X212852000Y-104394000D03*
%TD*%
D16*
%TO.P,Q2,1*%
%TO.N,GND*%
X221996000Y-104394000D03*
D17*
%TO.P,Q2,3*%
%TO.N,Net-(J3-Pad1)*%
X224536000Y-104394000D03*
%TO.P,Q2,2*%
%TO.N,Net-(Q2-Pad2)*%
X223266000Y-104394000D03*
%TD*%
D16*
%TO.P,Q1,1*%
%TO.N,GND*%
X232156000Y-104394000D03*
D17*
%TO.P,Q1,3*%
%TO.N,Net-(J2-Pad1)*%
X234696000Y-104394000D03*
%TO.P,Q1,2*%
%TO.N,Net-(Q1-Pad2)*%
X233426000Y-104394000D03*
%TD*%
D15*
%TO.P,D25,1*%
%TO.N,Net-(D25-Pad1)*%
X235204000Y-113284000D03*
%TD*%
%TO.P,D24,1*%
%TO.N,Net-(D24-Pad1)*%
X235204000Y-95758000D03*
%TD*%
%TO.P,D23,1*%
%TO.N,Net-(D23-Pad1)*%
X235204000Y-78232000D03*
%TD*%
%TO.P,D22,1*%
%TO.N,Net-(D22-Pad1)*%
X235204000Y-60706000D03*
%TD*%
%TO.P,D21,1*%
%TO.N,Net-(D21-Pad1)*%
X235204000Y-43180000D03*
%TD*%
%TO.P,D20,1*%
%TO.N,Net-(D20-Pad1)*%
X217678000Y-113284000D03*
%TD*%
%TO.P,D19,1*%
%TO.N,Net-(D19-Pad1)*%
X217678000Y-95758000D03*
%TD*%
%TO.P,D18,1*%
%TO.N,Net-(D18-Pad1)*%
X217678000Y-78232000D03*
%TD*%
%TO.P,D17,1*%
%TO.N,Net-(D17-Pad1)*%
X217678000Y-60706000D03*
%TD*%
%TO.P,D16,1*%
%TO.N,Net-(D16-Pad1)*%
X217678000Y-43180000D03*
%TD*%
%TO.P,D15,1*%
%TO.N,Net-(D15-Pad1)*%
X200152000Y-113284000D03*
%TD*%
%TO.P,D14,1*%
%TO.N,Net-(D14-Pad1)*%
X200152000Y-95758000D03*
%TD*%
%TO.P,D13,1*%
%TO.N,Net-(D13-Pad1)*%
X200152000Y-78232000D03*
%TD*%
%TO.P,D12,1*%
%TO.N,Net-(D12-Pad1)*%
X200152000Y-60706000D03*
%TD*%
%TO.P,D11,1*%
%TO.N,Net-(D11-Pad1)*%
X200152000Y-43180000D03*
%TD*%
%TO.P,D10,1*%
%TO.N,Net-(D10-Pad1)*%
X182626000Y-113284000D03*
%TD*%
%TO.P,D9,1*%
%TO.N,Net-(D9-Pad1)*%
X182626000Y-95758000D03*
%TD*%
%TO.P,D8,1*%
%TO.N,Net-(D8-Pad1)*%
X182626000Y-78232000D03*
%TD*%
%TO.P,D7,1*%
%TO.N,Net-(D7-Pad1)*%
X182626000Y-60706000D03*
%TD*%
%TO.P,D6,1*%
%TO.N,Net-(D6-Pad1)*%
X182626000Y-43180000D03*
%TD*%
%TO.P,D5,1*%
%TO.N,Net-(D5-Pad1)*%
X165100000Y-113284000D03*
%TD*%
%TO.P,D4,1*%
%TO.N,Net-(D4-Pad1)*%
X165100000Y-95758000D03*
%TD*%
%TO.P,D3,1*%
%TO.N,Net-(D3-Pad1)*%
X165100000Y-78232000D03*
%TD*%
%TO.P,D2,1*%
%TO.N,Net-(D2-Pad1)*%
X165100000Y-60706000D03*
%TD*%
%TO.P,D1,1*%
%TO.N,Net-(D1-Pad1)*%
X165100000Y-43180000D03*
%TD*%
D18*
%TO.N,Net-(D1-Pad1)*%
X165100000Y-43180000D02*
X168910000Y-43180000D01*
%TO.N,Net-(D2-Pad1)*%
X165100000Y-60706000D02*
X169164000Y-60706000D01*
%TO.N,Net-(D3-Pad1)*%
X165100000Y-78232000D02*
X169164000Y-78232000D01*
%TO.N,Net-(D4-Pad1)*%
X165100000Y-95758000D02*
X169164000Y-95758000D01*
%TO.N,Net-(D5-Pad1)*%
X165100000Y-113284000D02*
X169164000Y-113284000D01*
%TO.N,Net-(D6-Pad1)*%
X182626000Y-43180000D02*
X186690000Y-43180000D01*
%TO.N,Net-(D7-Pad1)*%
X184040213Y-60706000D02*
X186690000Y-60706000D01*
X182626000Y-60706000D02*
X184040213Y-60706000D01*
%TO.N,Net-(D8-Pad1)*%
X182626000Y-78232000D02*
X186690000Y-78232000D01*
%TO.N,Net-(D9-Pad1)*%
X182626000Y-95758000D02*
X186690000Y-95758000D01*
%TO.N,Net-(D10-Pad1)*%
X184040213Y-113284000D02*
X186690000Y-113284000D01*
X182626000Y-113284000D02*
X184040213Y-113284000D01*
%TO.N,Net-(D11-Pad1)*%
X200152000Y-43180000D02*
X204216000Y-43180000D01*
%TO.N,Net-(D12-Pad1)*%
X200152000Y-60706000D02*
X204216000Y-60706000D01*
%TO.N,Net-(D13-Pad1)*%
X200152000Y-78232000D02*
X204216000Y-78232000D01*
%TO.N,Net-(D14-Pad1)*%
X201566213Y-95758000D02*
X204216000Y-95758000D01*
X200152000Y-95758000D02*
X201566213Y-95758000D01*
%TO.N,Net-(D15-Pad1)*%
X200152000Y-113284000D02*
X204216000Y-113284000D01*
%TO.N,Net-(D16-Pad1)*%
X217678000Y-43180000D02*
X221742000Y-43180000D01*
%TO.N,Net-(D17-Pad1)*%
X217678000Y-60706000D02*
X221742000Y-60706000D01*
%TO.N,Net-(D18-Pad1)*%
X217678000Y-78232000D02*
X221742000Y-78232000D01*
%TO.N,Net-(D19-Pad1)*%
X217678000Y-95758000D02*
X221742000Y-95758000D01*
%TO.N,Net-(D20-Pad1)*%
X217678000Y-113284000D02*
X221742000Y-113284000D01*
%TO.N,Net-(D21-Pad1)*%
X235204000Y-43180000D02*
X239268000Y-43180000D01*
%TO.N,Net-(D22-Pad1)*%
X235204000Y-60706000D02*
X239268000Y-60706000D01*
%TO.N,Net-(D23-Pad1)*%
X235204000Y-78232000D02*
X239268000Y-78232000D01*
%TO.N,Net-(D24-Pad1)*%
X235204000Y-95758000D02*
X239268000Y-95758000D01*
%TO.N,Net-(D25-Pad1)*%
X235204000Y-113284000D02*
X239268000Y-113284000D01*
%TO.N,GND*%
X221996000Y-103394000D02*
X221996000Y-104394000D01*
X222071010Y-103318990D02*
X221996000Y-103394000D01*
X230305990Y-103318990D02*
X222071010Y-103318990D01*
X231381000Y-104394000D02*
X230305990Y-103318990D01*
X232156000Y-104394000D02*
X231381000Y-104394000D01*
X211582000Y-105394000D02*
X211582000Y-104394000D01*
X211657010Y-105469010D02*
X211582000Y-105394000D01*
X220145990Y-105469010D02*
X211657010Y-105469010D01*
X221221000Y-104394000D02*
X220145990Y-105469010D01*
X221996000Y-104394000D02*
X221221000Y-104394000D01*
X201422000Y-103394000D02*
X201422000Y-104394000D01*
X209731990Y-103318990D02*
X201497010Y-103318990D01*
X210807000Y-104394000D02*
X209731990Y-103318990D01*
X201497010Y-103318990D02*
X201422000Y-103394000D01*
X211582000Y-104394000D02*
X210807000Y-104394000D01*
X201422000Y-104394000D02*
X201422000Y-105394000D01*
X232231010Y-105469010D02*
X232156000Y-105394000D01*
X248761992Y-105469010D02*
X232231010Y-105469010D01*
X250725001Y-103506001D02*
X248761992Y-105469010D01*
X232156000Y-105394000D02*
X232156000Y-104394000D01*
X195943001Y-84183001D02*
X195617999Y-83857999D01*
X195617999Y-83857999D02*
X194818000Y-83058000D01*
X198483001Y-84183001D02*
X195943001Y-84183001D01*
X194018001Y-66331999D02*
X194818000Y-65532000D01*
X191152999Y-69197001D02*
X194018001Y-66331999D01*
X191152999Y-83598001D02*
X191152999Y-69197001D01*
X191737999Y-84183001D02*
X191152999Y-83598001D01*
X193692999Y-84183001D02*
X191737999Y-84183001D01*
X194818000Y-83058000D02*
X193692999Y-84183001D01*
X203852999Y-74277001D02*
X204178001Y-73951999D01*
X202145997Y-74277001D02*
X203852999Y-74277001D01*
X198318999Y-78103999D02*
X202145997Y-74277001D01*
X204178001Y-73951999D02*
X204978000Y-73152000D01*
X198318999Y-79557001D02*
X198318999Y-78103999D01*
X194818000Y-83058000D02*
X198318999Y-79557001D01*
X204978000Y-90678000D02*
X198483001Y-84183001D01*
X223049999Y-66331999D02*
X222250000Y-65532000D01*
X228744999Y-72026999D02*
X223049999Y-66331999D01*
X231284999Y-72026999D02*
X228744999Y-72026999D01*
X232410000Y-73152000D02*
X231284999Y-72026999D01*
X241808000Y-92202000D02*
X240284000Y-90678000D01*
X248666000Y-92202000D02*
X241808000Y-92202000D01*
X250725001Y-94261001D02*
X248666000Y-92202000D01*
X250725001Y-95730999D02*
X250725001Y-94261001D01*
X250725001Y-95730999D02*
X250725001Y-103506001D01*
X230923999Y-83857999D02*
X230124000Y-83058000D01*
X235427992Y-88361992D02*
X230923999Y-83857999D01*
X249104994Y-88361992D02*
X235427992Y-88361992D01*
X249841001Y-89097999D02*
X249104994Y-88361992D01*
X249841001Y-91026999D02*
X249841001Y-89097999D01*
X248666000Y-92202000D02*
X249841001Y-91026999D01*
X191262000Y-105394000D02*
X191262000Y-104394000D01*
X191337010Y-105469010D02*
X191262000Y-105394000D01*
X201346990Y-105469010D02*
X191337010Y-105469010D01*
X201422000Y-105394000D02*
X201346990Y-105469010D01*
%TO.N,/A12*%
X247816001Y-88812001D02*
X233338001Y-88812001D01*
X228383999Y-83857999D02*
X227584000Y-83058000D01*
X233338001Y-88812001D02*
X228383999Y-83857999D01*
X248666000Y-89662000D02*
X247816001Y-88812001D01*
%TO.N,/A4*%
X229870000Y-80264000D02*
X232664000Y-83058000D01*
X229870000Y-73152000D02*
X229870000Y-80264000D01*
X216391411Y-66657001D02*
X213234410Y-63500000D01*
X222738591Y-66657001D02*
X216391411Y-66657001D01*
X229233590Y-73152000D02*
X222738591Y-66657001D01*
X229870000Y-73152000D02*
X229233590Y-73152000D01*
X199390000Y-63500000D02*
X197358000Y-65532000D01*
X213234410Y-63500000D02*
X199390000Y-63500000D01*
X236728000Y-87122000D02*
X232664000Y-83058000D01*
X248666000Y-87122000D02*
X236728000Y-87122000D01*
%TO.N,/A0*%
X201473011Y-84633011D02*
X200697999Y-83857999D01*
X222593991Y-84633011D02*
X201473011Y-84633011D01*
X223629001Y-83598001D02*
X222593991Y-84633011D01*
X223629001Y-82569409D02*
X223629001Y-83598001D01*
X227330000Y-78868410D02*
X223629001Y-82569409D01*
X200697999Y-83857999D02*
X199898000Y-83058000D01*
X227330000Y-73152000D02*
X227330000Y-78868410D01*
X249174000Y-84328000D02*
X248499000Y-84328000D01*
X236003999Y-83857999D02*
X235204000Y-83058000D01*
X236779011Y-84633011D02*
X236003999Y-83857999D01*
X248614989Y-84633011D02*
X236779011Y-84633011D01*
X248666000Y-84582000D02*
X248614989Y-84633011D01*
%TO.N,+5V*%
X187997999Y-82258001D02*
X187198000Y-83058000D01*
X187997999Y-77874997D02*
X187997999Y-82258001D01*
X186072999Y-75949997D02*
X187997999Y-77874997D01*
X186072999Y-66657001D02*
X186072999Y-75949997D01*
X187198000Y-65532000D02*
X186072999Y-66657001D01*
X221704001Y-83857999D02*
X222504000Y-83058000D01*
X221378999Y-84183001D02*
X221704001Y-83857999D01*
X203563001Y-84183001D02*
X221378999Y-84183001D01*
X202438000Y-83058000D02*
X203563001Y-84183001D01*
X201638001Y-66331999D02*
X202438000Y-65532000D01*
X240829999Y-73951999D02*
X240829999Y-79972001D01*
X240030000Y-73152000D02*
X240829999Y-73951999D01*
X224790000Y-80772000D02*
X224790000Y-73152000D01*
X222504000Y-83058000D02*
X224790000Y-80772000D01*
X247566000Y-82042000D02*
X246804000Y-81280000D01*
X248666000Y-82042000D02*
X247566000Y-82042000D01*
X239522000Y-81280000D02*
X238543999Y-82258001D01*
X246804000Y-81280000D02*
X239522000Y-81280000D01*
X240829999Y-79972001D02*
X239522000Y-81280000D01*
%TO.N,Net-(Q1-Pad2)*%
X233426000Y-104394000D02*
X233680000Y-104140000D01*
%TO.N,/U4_E*%
X211385997Y-97083001D02*
X219568998Y-88900000D01*
%TO.N,Net-(Q5-Pad2)*%
X192532000Y-104394000D02*
X192532000Y-103394000D01*
%TO.N,/U4_E*%
X228346000Y-88900000D02*
X230124000Y-90678000D01*
X219568998Y-88900000D02*
X228346000Y-88900000D01*
X202636999Y-97083001D02*
X200660000Y-99060000D01*
X211385997Y-97083001D02*
X202636999Y-97083001D01*
%TO.N,/U2_D*%
X179832000Y-78232000D02*
X179324000Y-78232000D01*
X192278000Y-90678000D02*
X179832000Y-78232000D01*
%TO.N,/U2_C*%
X180123999Y-94958001D02*
X179324000Y-95758000D01*
X185529001Y-89552999D02*
X180123999Y-94958001D01*
X188612999Y-89552999D02*
X185529001Y-89552999D01*
X189738000Y-90678000D02*
X188612999Y-89552999D01*
%TO.N,/U2_B*%
X180123999Y-112484001D02*
X179324000Y-113284000D01*
X181300999Y-111307001D02*
X180123999Y-112484001D01*
X181300999Y-95121999D02*
X181300999Y-111307001D01*
X185744998Y-90678000D02*
X181300999Y-95121999D01*
X187198000Y-90678000D02*
X185744998Y-90678000D01*
%TO.N,/U1_G*%
X199898000Y-75184000D02*
X199898000Y-73152000D01*
X196850000Y-78232000D02*
X199898000Y-75184000D01*
%TO.N,/U1_H*%
X198175001Y-94432999D02*
X197649999Y-94958001D01*
X197649999Y-94958001D02*
X196850000Y-95758000D01*
X202888003Y-94432999D02*
X198175001Y-94432999D01*
X206103001Y-91218001D02*
X202888003Y-94432999D01*
X206103001Y-90137999D02*
X206103001Y-91218001D01*
X205518001Y-89552999D02*
X206103001Y-90137999D01*
X204489409Y-89552999D02*
X205518001Y-89552999D01*
X199357999Y-81932999D02*
X198483001Y-82807997D01*
X202180003Y-81932999D02*
X199357999Y-81932999D01*
X206103001Y-78010001D02*
X202180003Y-81932999D01*
X198483001Y-83546591D02*
X204489409Y-89552999D01*
X206103001Y-72611999D02*
X206103001Y-78010001D01*
X205518001Y-72026999D02*
X206103001Y-72611999D01*
X198483001Y-82807997D02*
X198483001Y-83546591D01*
X203563001Y-72026999D02*
X205518001Y-72026999D01*
X202438000Y-73152000D02*
X203563001Y-72026999D01*
%TO.N,/U2_A*%
X189374999Y-105808999D02*
X189374999Y-98519999D01*
X196850000Y-113284000D02*
X189374999Y-105808999D01*
X190537999Y-83857999D02*
X189738000Y-83058000D01*
X193403001Y-86723001D02*
X190537999Y-83857999D01*
X193403001Y-94491997D02*
X193403001Y-86723001D01*
X189374999Y-98519999D02*
X193403001Y-94491997D01*
%TO.N,/U3_C*%
X232701999Y-43979999D02*
X231902000Y-43180000D01*
X233027001Y-44305001D02*
X232701999Y-43979999D01*
X233027001Y-61069001D02*
X233027001Y-44305001D01*
X237490000Y-65532000D02*
X233027001Y-61069001D01*
%TO.N,/U3_D*%
X234950000Y-63754000D02*
X231902000Y-60706000D01*
X234950000Y-65532000D02*
X234950000Y-63754000D01*
%TO.N,/U3_E*%
X233209999Y-66331999D02*
X232410000Y-65532000D01*
X233535001Y-66657001D02*
X233209999Y-66331999D01*
X233535001Y-73692001D02*
X233535001Y-66657001D01*
X231902000Y-75325002D02*
X233535001Y-73692001D01*
X231902000Y-78232000D02*
X231902000Y-75325002D01*
%TO.N,/U3_B*%
X249428000Y-55084000D02*
X249428000Y-44311370D01*
X240030000Y-64482000D02*
X249428000Y-55084000D01*
X249428000Y-44311370D02*
X249428000Y-43180000D01*
X240030000Y-65532000D02*
X240030000Y-64482000D01*
%TO.N,/U3_A*%
X237490000Y-72644000D02*
X237490000Y-73152000D01*
X249428000Y-60706000D02*
X237490000Y-72644000D01*
%TO.N,/U4_G*%
X236003999Y-91477999D02*
X235204000Y-90678000D01*
X239158999Y-94632999D02*
X236003999Y-91477999D01*
X248302999Y-94632999D02*
X239158999Y-94632999D01*
X249428000Y-95758000D02*
X248302999Y-94632999D01*
%TO.N,/U3_HH*%
X222250000Y-73152000D02*
X213504999Y-64406999D01*
X193077999Y-64732001D02*
X192278000Y-65532000D01*
X195358001Y-64406999D02*
X193403001Y-64406999D01*
X195943001Y-65782003D02*
X195943001Y-64991999D01*
X196817999Y-66657001D02*
X195943001Y-65782003D01*
X195943001Y-64991999D02*
X195358001Y-64406999D01*
X198483001Y-65281997D02*
X198483001Y-66072001D01*
X199357999Y-64406999D02*
X198483001Y-65281997D01*
X193403001Y-64406999D02*
X193077999Y-64732001D01*
X197898001Y-66657001D02*
X196817999Y-66657001D01*
X198483001Y-66072001D02*
X197898001Y-66657001D01*
X213504999Y-64406999D02*
X199357999Y-64406999D01*
%TO.N,/U1_HH*%
X192278000Y-81138998D02*
X192278000Y-83058000D01*
X198483001Y-74933997D02*
X192278000Y-81138998D01*
X198483001Y-72026999D02*
X198483001Y-74933997D01*
X204978000Y-65532000D02*
X198483001Y-72026999D01*
%TO.N,/U4_HH*%
X233878999Y-74223001D02*
X234150001Y-73951999D01*
X233878999Y-80067997D02*
X233878999Y-74223001D01*
X236618999Y-82807997D02*
X233878999Y-80067997D01*
X236618999Y-83598001D02*
X236618999Y-82807997D01*
X234150001Y-73951999D02*
X234950000Y-73152000D01*
X239158999Y-84183001D02*
X237203999Y-84183001D01*
X237203999Y-84183001D02*
X236618999Y-83598001D01*
X240284000Y-83058000D02*
X239158999Y-84183001D01*
%TO.N,Net-(J2-Pad1)*%
X234696000Y-103394000D02*
X234696000Y-104394000D01*
X235220000Y-102870000D02*
X234696000Y-103394000D01*
X241300000Y-102870000D02*
X235220000Y-102870000D01*
%TO.N,Net-(J3-Pad1)*%
X224536000Y-105394000D02*
X224536000Y-104394000D01*
X226062000Y-106920000D02*
X224536000Y-105394000D01*
X241300000Y-106920000D02*
X226062000Y-106920000D01*
%TO.N,Net-(J4-Pad1)*%
X214122000Y-103394000D02*
X214122000Y-104394000D01*
X215971001Y-101544999D02*
X214122000Y-103394000D01*
X244024999Y-101544999D02*
X215971001Y-101544999D01*
X245350000Y-102870000D02*
X244024999Y-101544999D01*
%TO.N,Net-(J5-Pad1)*%
X203962000Y-105394000D02*
X203962000Y-104394000D01*
X205938010Y-107370010D02*
X203962000Y-105394000D01*
X228415012Y-107370010D02*
X205938010Y-107370010D01*
X229290003Y-108245001D02*
X228415012Y-107370010D01*
X244024999Y-108245001D02*
X229290003Y-108245001D01*
X245350000Y-106920000D02*
X244024999Y-108245001D01*
%TO.N,Net-(J6-Pad1)*%
X193802000Y-103394000D02*
X193802000Y-104394000D01*
X196101010Y-101094990D02*
X193802000Y-103394000D01*
X247624990Y-101094990D02*
X196101010Y-101094990D01*
X249400000Y-102870000D02*
X247624990Y-101094990D01*
%TO.N,Net-(Q5-Pad2)*%
X192532000Y-101092000D02*
X190500000Y-99060000D01*
X192532000Y-104394000D02*
X192532000Y-101092000D01*
%TD*%
M02*
