M48
; DRILL file {KiCad 5.1.5+dfsg1-2build2} date Di 10 Aug 2021 12:38:52 CEST
; FORMAT={-:-/ absolute / inch / decimal}
; #@! TF.CreationDate,2021-08-10T12:38:52+02:00
; #@! TF.GenerationSoftware,Kicad,Pcbnew,5.1.5+dfsg1-2build2
; #@! TF.FileFunction,Plated,1,2,PTH
FMAT,2
INCH
T1C0.0295
T2C0.0315
T3C0.0394
%
G90
G05
T1
X7.93Y-4.11
X7.98Y-4.11
X8.03Y-4.11
X7.53Y-4.11
X7.58Y-4.11
X7.63Y-4.11
X9.14Y-4.11
X9.19Y-4.11
X9.24Y-4.11
X8.33Y-4.11
X8.38Y-4.11
X8.43Y-4.11
X8.74Y-4.11
X8.79Y-4.11
X8.84Y-4.11
T2
X9.42Y-1.7
X9.82Y-1.7
X8.5Y-3.9
X8.9Y-3.9
X8.04Y-2.39
X8.44Y-2.39
X8.04Y-3.77
X8.44Y-3.77
X8.04Y-3.08
X8.44Y-3.08
X8.75Y-2.58
X8.75Y-2.88
X8.85Y-2.58
X8.85Y-2.88
X8.95Y-2.58
X8.95Y-2.88
X9.05Y-2.58
X9.05Y-2.88
X9.15Y-2.58
X9.15Y-2.88
X9.25Y-2.58
X9.25Y-2.88
X9.35Y-2.58
X9.35Y-2.88
X9.45Y-2.58
X9.45Y-2.88
X6.66Y-3.08
X7.06Y-3.08
X8.73Y-1.7
X9.13Y-1.7
X7.37Y-3.27
X7.37Y-3.57
X7.47Y-3.27
X7.47Y-3.57
X7.57Y-3.27
X7.57Y-3.57
X7.67Y-3.27
X7.67Y-3.57
X7.77Y-3.27
X7.77Y-3.57
X7.87Y-3.27
X7.87Y-3.57
X7.97Y-3.27
X7.97Y-3.57
X8.07Y-3.27
X8.07Y-3.57
X7.37Y-2.58
X7.37Y-2.88
X7.47Y-2.58
X7.47Y-2.88
X7.57Y-2.58
X7.57Y-2.88
X7.67Y-2.58
X7.67Y-2.88
X7.77Y-2.58
X7.77Y-2.88
X7.87Y-2.58
X7.87Y-2.88
X7.97Y-2.58
X7.97Y-2.88
X8.07Y-2.58
X8.07Y-2.88
X7.35Y-2.39
X7.75Y-2.39
X7.35Y-4.46
X7.75Y-4.46
X8.73Y-2.39
X9.13Y-2.39
X8.73Y-3.77
X9.13Y-3.77
X8.04Y-1.7
X8.44Y-1.7
X8.76Y-3.27
X8.76Y-3.57
X8.86Y-3.27
X8.86Y-3.57
X8.96Y-3.27
X8.96Y-3.57
X9.06Y-3.27
X9.06Y-3.57
X9.16Y-3.27
X9.16Y-3.57
X9.26Y-3.27
X9.26Y-3.57
X9.36Y-3.27
X9.36Y-3.57
X9.46Y-3.27
X9.46Y-3.57
X7.5Y-3.9
X7.9Y-3.9
X6.66Y-4.46
X7.06Y-4.46
X6.65Y-1.7
X7.05Y-1.7
X8.0Y-3.9
X8.4Y-3.9
X7.35Y-1.7
X7.75Y-1.7
X8.73Y-3.08
X9.13Y-3.08
X9.42Y-3.77
X9.82Y-3.77
X8.1Y-4.3
X8.5Y-4.3
X9.42Y-2.39
X9.82Y-2.39
X9.42Y-4.46
X9.82Y-4.46
X8.04Y-4.46
X8.44Y-4.46
X6.66Y-3.77
X7.06Y-3.77
X9.42Y-3.08
X9.82Y-3.08
X7.35Y-3.77
X7.75Y-3.77
X6.66Y-2.39
X7.06Y-2.39
X7.35Y-3.08
X7.75Y-3.08
X8.6Y-4.3
X9.0Y-4.3
X8.73Y-4.46
X9.13Y-4.46
T3
X7.88Y-3.77
X7.19Y-4.46
X9.26Y-4.46
X9.6594Y-4.2094
X6.5Y-4.46
X7.19Y-1.7
X7.88Y-3.08
X6.5Y-3.08
X7.19Y-3.77
X9.26Y-3.77
X8.57Y-3.77
X8.57Y-3.08
X7.88Y-1.7
X6.5Y-3.77
X6.5Y-1.7
X8.57Y-4.46
X9.6594Y-4.05
X7.88Y-4.46
X7.19Y-3.08
X8.57Y-2.39
X8.57Y-1.7
X9.8189Y-4.05
X9.5Y-4.05
X9.26Y-2.39
X7.88Y-2.39
X9.79Y-3.23
X9.79Y-3.33
X9.79Y-3.43
X9.79Y-3.53
X9.79Y-3.63
X9.26Y-1.7
X9.5Y-4.2094
X6.5Y-2.39
X7.19Y-2.39
X9.26Y-3.08
T0
M30
