%TF.GenerationSoftware,KiCad,Pcbnew,5.1.5+dfsg1-2build2*%
%TF.CreationDate,2021-08-10T12:38:12+02:00*%
%TF.ProjectId,ledcube_5,6c656463-7562-4655-9f35-2e6b69636164,rev?*%
%TF.SameCoordinates,Original*%
%TF.FileFunction,Copper,L2,Bot*%
%TF.FilePolarity,Positive*%
%FSLAX46Y46*%
G04 Gerber Fmt 4.6, Leading zero omitted, Abs format (unit mm)*
G04 Created by KiCad (PCBNEW 5.1.5+dfsg1-2build2) date 2021-08-10 12:38:12*
%MOMM*%
%LPD*%
G04 APERTURE LIST*
%TA.AperFunction,ComponentPad*%
%ADD10O,1.600000X1.600000*%
%TD*%
%TA.AperFunction,ComponentPad*%
%ADD11C,1.600000*%
%TD*%
%TA.AperFunction,ComponentPad*%
%ADD12O,1.700000X1.700000*%
%TD*%
%TA.AperFunction,ComponentPad*%
%ADD13R,1.700000X1.700000*%
%TD*%
%TA.AperFunction,ComponentPad*%
%ADD14R,1.600000X1.600000*%
%TD*%
%TA.AperFunction,ComponentPad*%
%ADD15C,2.000000*%
%TD*%
%TA.AperFunction,ComponentPad*%
%ADD16R,1.050000X1.500000*%
%TD*%
%TA.AperFunction,ComponentPad*%
%ADD17O,1.050000X1.500000*%
%TD*%
%TA.AperFunction,Conductor*%
%ADD18C,0.250000*%
%TD*%
G04 APERTURE END LIST*
D10*
%TO.P,R30,2*%
%TO.N,Net-(Q5-Pad2)*%
X190500000Y-99060000D03*
D11*
%TO.P,R30,1*%
%TO.N,/U4_E*%
X200660000Y-99060000D03*
%TD*%
D10*
%TO.P,R29,2*%
%TO.N,Net-(Q4-Pad2)*%
X203200000Y-99060000D03*
D11*
%TO.P,R29,1*%
%TO.N,/U4_D*%
X213360000Y-99060000D03*
%TD*%
D10*
%TO.P,R28,2*%
%TO.N,Net-(Q3-Pad2)*%
X215900000Y-99060000D03*
D11*
%TO.P,R28,1*%
%TO.N,/U4_C*%
X226060000Y-99060000D03*
%TD*%
D10*
%TO.P,R27,2*%
%TO.N,Net-(Q2-Pad2)*%
X218440000Y-109220000D03*
D11*
%TO.P,R27,1*%
%TO.N,/U4_B*%
X228600000Y-109220000D03*
%TD*%
D10*
%TO.P,R26,2*%
%TO.N,Net-(Q1-Pad2)*%
X215900000Y-109220000D03*
D11*
%TO.P,R26,1*%
%TO.N,/U4_A*%
X205740000Y-109220000D03*
%TD*%
D12*
%TO.P,J1,5*%
%TO.N,GND*%
X248666000Y-92202000D03*
%TO.P,J1,4*%
%TO.N,/A12*%
X248666000Y-89662000D03*
%TO.P,J1,3*%
%TO.N,/A4*%
X248666000Y-87122000D03*
%TO.P,J1,2*%
%TO.N,/A0*%
X248666000Y-84582000D03*
D13*
%TO.P,J1,1*%
%TO.N,+5V*%
X248666000Y-82042000D03*
%TD*%
D10*
%TO.P,U1,16*%
%TO.N,+5V*%
X187198000Y-65532000D03*
%TO.P,U1,8*%
%TO.N,GND*%
X204978000Y-73152000D03*
%TO.P,U1,15*%
%TO.N,/U1_A*%
X189738000Y-65532000D03*
%TO.P,U1,7*%
%TO.N,/U1_H*%
X202438000Y-73152000D03*
%TO.P,U1,14*%
%TO.N,/U3_HH*%
X192278000Y-65532000D03*
%TO.P,U1,6*%
%TO.N,/U1_G*%
X199898000Y-73152000D03*
%TO.P,U1,13*%
%TO.N,GND*%
X194818000Y-65532000D03*
%TO.P,U1,5*%
%TO.N,/U1_F*%
X197358000Y-73152000D03*
%TO.P,U1,12*%
%TO.N,/A4*%
X197358000Y-65532000D03*
%TO.P,U1,4*%
%TO.N,/U1_E*%
X194818000Y-73152000D03*
%TO.P,U1,11*%
%TO.N,/A0*%
X199898000Y-65532000D03*
%TO.P,U1,3*%
%TO.N,/U1_D*%
X192278000Y-73152000D03*
%TO.P,U1,10*%
%TO.N,+5V*%
X202438000Y-65532000D03*
%TO.P,U1,2*%
%TO.N,/U1_C*%
X189738000Y-73152000D03*
%TO.P,U1,9*%
%TO.N,/U1_HH*%
X204978000Y-65532000D03*
D14*
%TO.P,U1,1*%
%TO.N,/U1_B*%
X187198000Y-73152000D03*
%TD*%
D15*
%TO.P,J6,1*%
%TO.N,Net-(J6-Pad1)*%
X249400000Y-102870000D03*
%TD*%
%TO.P,J5,1*%
%TO.N,Net-(J5-Pad1)*%
X245350000Y-106920000D03*
%TD*%
%TO.P,J4,1*%
%TO.N,Net-(J4-Pad1)*%
X245350000Y-102870000D03*
%TD*%
%TO.P,J3,1*%
%TO.N,Net-(J3-Pad1)*%
X241300000Y-106920000D03*
%TD*%
%TO.P,J2,1*%
%TO.N,Net-(J2-Pad1)*%
X241300000Y-102870000D03*
%TD*%
D10*
%TO.P,R25,2*%
%TO.N,Net-(D25-Pad1)*%
X239268000Y-113284000D03*
D11*
%TO.P,R25,1*%
%TO.N,/U4_F*%
X249428000Y-113284000D03*
%TD*%
D10*
%TO.P,R24,2*%
%TO.N,Net-(D24-Pad1)*%
X239268000Y-95758000D03*
D11*
%TO.P,R24,1*%
%TO.N,/U4_G*%
X249428000Y-95758000D03*
%TD*%
D10*
%TO.P,R23,2*%
%TO.N,Net-(D23-Pad1)*%
X239268000Y-78232000D03*
D11*
%TO.P,R23,1*%
%TO.N,/U4_H*%
X249428000Y-78232000D03*
%TD*%
D10*
%TO.P,R22,2*%
%TO.N,Net-(D22-Pad1)*%
X239268000Y-60706000D03*
D11*
%TO.P,R22,1*%
%TO.N,/U3_A*%
X249428000Y-60706000D03*
%TD*%
D10*
%TO.P,R21,2*%
%TO.N,Net-(D21-Pad1)*%
X239268000Y-43180000D03*
D11*
%TO.P,R21,1*%
%TO.N,/U3_B*%
X249428000Y-43180000D03*
%TD*%
D10*
%TO.P,R20,2*%
%TO.N,Net-(D20-Pad1)*%
X221742000Y-113284000D03*
D11*
%TO.P,R20,1*%
%TO.N,/U3_G*%
X231902000Y-113284000D03*
%TD*%
D10*
%TO.P,R19,2*%
%TO.N,Net-(D19-Pad1)*%
X221742000Y-95758000D03*
D11*
%TO.P,R19,1*%
%TO.N,/U3_F*%
X231902000Y-95758000D03*
%TD*%
D10*
%TO.P,R18,2*%
%TO.N,Net-(D18-Pad1)*%
X221742000Y-78232000D03*
D11*
%TO.P,R18,1*%
%TO.N,/U3_E*%
X231902000Y-78232000D03*
%TD*%
D10*
%TO.P,R17,2*%
%TO.N,Net-(D17-Pad1)*%
X221742000Y-60706000D03*
D11*
%TO.P,R17,1*%
%TO.N,/U3_D*%
X231902000Y-60706000D03*
%TD*%
D10*
%TO.P,R16,2*%
%TO.N,Net-(D16-Pad1)*%
X221742000Y-43180000D03*
D11*
%TO.P,R16,1*%
%TO.N,/U3_C*%
X231902000Y-43180000D03*
%TD*%
D10*
%TO.P,R15,2*%
%TO.N,Net-(D15-Pad1)*%
X204216000Y-113284000D03*
D11*
%TO.P,R15,1*%
%TO.N,/U3_H*%
X214376000Y-113284000D03*
%TD*%
D10*
%TO.P,R14,2*%
%TO.N,Net-(D14-Pad1)*%
X204216000Y-95758000D03*
D11*
%TO.P,R14,1*%
%TO.N,/U1_A*%
X214376000Y-95758000D03*
%TD*%
D10*
%TO.P,R13,2*%
%TO.N,Net-(D13-Pad1)*%
X204216000Y-78232000D03*
D11*
%TO.P,R13,1*%
%TO.N,/U1_B*%
X214376000Y-78232000D03*
%TD*%
D10*
%TO.P,R12,2*%
%TO.N,Net-(D12-Pad1)*%
X204216000Y-60706000D03*
D11*
%TO.P,R12,1*%
%TO.N,/U1_C*%
X214376000Y-60706000D03*
%TD*%
D10*
%TO.P,R11,2*%
%TO.N,Net-(D11-Pad1)*%
X204216000Y-43180000D03*
D11*
%TO.P,R11,1*%
%TO.N,/U1_D*%
X214376000Y-43180000D03*
%TD*%
%TO.P,R10,1*%
%TO.N,/U2_A*%
X196850000Y-113284000D03*
D10*
%TO.P,R10,2*%
%TO.N,Net-(D10-Pad1)*%
X186690000Y-113284000D03*
%TD*%
%TO.P,R9,2*%
%TO.N,Net-(D9-Pad1)*%
X186690000Y-95758000D03*
D11*
%TO.P,R9,1*%
%TO.N,/U1_H*%
X196850000Y-95758000D03*
%TD*%
D10*
%TO.P,R8,2*%
%TO.N,Net-(D8-Pad1)*%
X186690000Y-78232000D03*
D11*
%TO.P,R8,1*%
%TO.N,/U1_G*%
X196850000Y-78232000D03*
%TD*%
D10*
%TO.P,R7,2*%
%TO.N,Net-(D7-Pad1)*%
X186690000Y-60706000D03*
D11*
%TO.P,R7,1*%
%TO.N,/U1_F*%
X196850000Y-60706000D03*
%TD*%
D10*
%TO.P,R6,2*%
%TO.N,Net-(D6-Pad1)*%
X186690000Y-43180000D03*
D11*
%TO.P,R6,1*%
%TO.N,/U1_E*%
X196850000Y-43180000D03*
%TD*%
D10*
%TO.P,R5,2*%
%TO.N,Net-(D5-Pad1)*%
X169164000Y-113284000D03*
D11*
%TO.P,R5,1*%
%TO.N,/U2_B*%
X179324000Y-113284000D03*
%TD*%
D10*
%TO.P,R4,2*%
%TO.N,Net-(D4-Pad1)*%
X169164000Y-95758000D03*
D11*
%TO.P,R4,1*%
%TO.N,/U2_C*%
X179324000Y-95758000D03*
%TD*%
D10*
%TO.P,R3,2*%
%TO.N,Net-(D3-Pad1)*%
X169164000Y-78232000D03*
D11*
%TO.P,R3,1*%
%TO.N,/U2_D*%
X179324000Y-78232000D03*
%TD*%
D10*
%TO.P,R2,2*%
%TO.N,Net-(D2-Pad1)*%
X169164000Y-60706000D03*
D11*
%TO.P,R2,1*%
%TO.N,/U2_E*%
X179324000Y-60706000D03*
%TD*%
D10*
%TO.P,R1,2*%
%TO.N,Net-(D1-Pad1)*%
X168910000Y-43180000D03*
D11*
%TO.P,R1,1*%
%TO.N,/U2_F*%
X179070000Y-43180000D03*
%TD*%
D10*
%TO.P,U4,16*%
%TO.N,+5V*%
X222504000Y-83058000D03*
%TO.P,U4,8*%
%TO.N,GND*%
X240284000Y-90678000D03*
%TO.P,U4,15*%
%TO.N,/U4_A*%
X225044000Y-83058000D03*
%TO.P,U4,7*%
%TO.N,/U4_H*%
X237744000Y-90678000D03*
%TO.P,U4,14*%
%TO.N,/A12*%
X227584000Y-83058000D03*
%TO.P,U4,6*%
%TO.N,/U4_G*%
X235204000Y-90678000D03*
%TO.P,U4,13*%
%TO.N,GND*%
X230124000Y-83058000D03*
%TO.P,U4,5*%
%TO.N,/U4_F*%
X232664000Y-90678000D03*
%TO.P,U4,12*%
%TO.N,/A4*%
X232664000Y-83058000D03*
%TO.P,U4,4*%
%TO.N,/U4_E*%
X230124000Y-90678000D03*
%TO.P,U4,11*%
%TO.N,/A0*%
X235204000Y-83058000D03*
%TO.P,U4,3*%
%TO.N,/U4_D*%
X227584000Y-90678000D03*
%TO.P,U4,10*%
%TO.N,+5V*%
X237744000Y-83058000D03*
%TO.P,U4,2*%
%TO.N,/U4_C*%
X225044000Y-90678000D03*
%TO.P,U4,9*%
%TO.N,/U4_HH*%
X240284000Y-83058000D03*
D14*
%TO.P,U4,1*%
%TO.N,/U4_B*%
X222504000Y-90678000D03*
%TD*%
D10*
%TO.P,U3,16*%
%TO.N,+5V*%
X240030000Y-73152000D03*
%TO.P,U3,8*%
%TO.N,GND*%
X222250000Y-65532000D03*
%TO.P,U3,15*%
%TO.N,/U3_A*%
X237490000Y-73152000D03*
%TO.P,U3,7*%
%TO.N,/U3_H*%
X224790000Y-65532000D03*
%TO.P,U3,14*%
%TO.N,/U4_HH*%
X234950000Y-73152000D03*
%TO.P,U3,6*%
%TO.N,/U3_G*%
X227330000Y-65532000D03*
%TO.P,U3,13*%
%TO.N,GND*%
X232410000Y-73152000D03*
%TO.P,U3,5*%
%TO.N,/U3_F*%
X229870000Y-65532000D03*
%TO.P,U3,12*%
%TO.N,/A4*%
X229870000Y-73152000D03*
%TO.P,U3,4*%
%TO.N,/U3_E*%
X232410000Y-65532000D03*
%TO.P,U3,11*%
%TO.N,/A0*%
X227330000Y-73152000D03*
%TO.P,U3,3*%
%TO.N,/U3_D*%
X234950000Y-65532000D03*
%TO.P,U3,10*%
%TO.N,+5V*%
X224790000Y-73152000D03*
%TO.P,U3,2*%
%TO.N,/U3_C*%
X237490000Y-65532000D03*
%TO.P,U3,9*%
%TO.N,/U3_HH*%
X222250000Y-73152000D03*
D14*
%TO.P,U3,1*%
%TO.N,/U3_B*%
X240030000Y-65532000D03*
%TD*%
D10*
%TO.P,U2,16*%
%TO.N,+5V*%
X187198000Y-83058000D03*
%TO.P,U2,8*%
%TO.N,GND*%
X204978000Y-90678000D03*
%TO.P,U2,15*%
%TO.N,/U2_A*%
X189738000Y-83058000D03*
%TO.P,U2,7*%
%TO.N,Net-(U2-Pad7)*%
X202438000Y-90678000D03*
%TO.P,U2,14*%
%TO.N,/U1_HH*%
X192278000Y-83058000D03*
%TO.P,U2,6*%
%TO.N,Net-(U2-Pad6)*%
X199898000Y-90678000D03*
%TO.P,U2,13*%
%TO.N,GND*%
X194818000Y-83058000D03*
%TO.P,U2,5*%
%TO.N,/U2_F*%
X197358000Y-90678000D03*
%TO.P,U2,12*%
%TO.N,/A4*%
X197358000Y-83058000D03*
%TO.P,U2,4*%
%TO.N,/U2_E*%
X194818000Y-90678000D03*
%TO.P,U2,11*%
%TO.N,/A0*%
X199898000Y-83058000D03*
%TO.P,U2,3*%
%TO.N,/U2_D*%
X192278000Y-90678000D03*
%TO.P,U2,10*%
%TO.N,+5V*%
X202438000Y-83058000D03*
%TO.P,U2,2*%
%TO.N,/U2_C*%
X189738000Y-90678000D03*
%TO.P,U2,9*%
%TO.N,Net-(U2-Pad9)*%
X204978000Y-83058000D03*
D14*
%TO.P,U2,1*%
%TO.N,/U2_B*%
X187198000Y-90678000D03*
%TD*%
D16*
%TO.P,Q5,1*%
%TO.N,GND*%
X191262000Y-104394000D03*
D17*
%TO.P,Q5,3*%
%TO.N,Net-(J6-Pad1)*%
X193802000Y-104394000D03*
%TO.P,Q5,2*%
%TO.N,Net-(Q5-Pad2)*%
X192532000Y-104394000D03*
%TD*%
D16*
%TO.P,Q4,1*%
%TO.N,GND*%
X201422000Y-104394000D03*
D17*
%TO.P,Q4,3*%
%TO.N,Net-(J5-Pad1)*%
X203962000Y-104394000D03*
%TO.P,Q4,2*%
%TO.N,Net-(Q4-Pad2)*%
X202692000Y-104394000D03*
%TD*%
D16*
%TO.P,Q3,1*%
%TO.N,GND*%
X211582000Y-104394000D03*
D17*
%TO.P,Q3,3*%
%TO.N,Net-(J4-Pad1)*%
X214122000Y-104394000D03*
%TO.P,Q3,2*%
%TO.N,Net-(Q3-Pad2)*%
X212852000Y-104394000D03*
%TD*%
D16*
%TO.P,Q2,1*%
%TO.N,GND*%
X221996000Y-104394000D03*
D17*
%TO.P,Q2,3*%
%TO.N,Net-(J3-Pad1)*%
X224536000Y-104394000D03*
%TO.P,Q2,2*%
%TO.N,Net-(Q2-Pad2)*%
X223266000Y-104394000D03*
%TD*%
D16*
%TO.P,Q1,1*%
%TO.N,GND*%
X232156000Y-104394000D03*
D17*
%TO.P,Q1,3*%
%TO.N,Net-(J2-Pad1)*%
X234696000Y-104394000D03*
%TO.P,Q1,2*%
%TO.N,Net-(Q1-Pad2)*%
X233426000Y-104394000D03*
%TD*%
D15*
%TO.P,D25,1*%
%TO.N,Net-(D25-Pad1)*%
X235204000Y-113284000D03*
%TD*%
%TO.P,D24,1*%
%TO.N,Net-(D24-Pad1)*%
X235204000Y-95758000D03*
%TD*%
%TO.P,D23,1*%
%TO.N,Net-(D23-Pad1)*%
X235204000Y-78232000D03*
%TD*%
%TO.P,D22,1*%
%TO.N,Net-(D22-Pad1)*%
X235204000Y-60706000D03*
%TD*%
%TO.P,D21,1*%
%TO.N,Net-(D21-Pad1)*%
X235204000Y-43180000D03*
%TD*%
%TO.P,D20,1*%
%TO.N,Net-(D20-Pad1)*%
X217678000Y-113284000D03*
%TD*%
%TO.P,D19,1*%
%TO.N,Net-(D19-Pad1)*%
X217678000Y-95758000D03*
%TD*%
%TO.P,D18,1*%
%TO.N,Net-(D18-Pad1)*%
X217678000Y-78232000D03*
%TD*%
%TO.P,D17,1*%
%TO.N,Net-(D17-Pad1)*%
X217678000Y-60706000D03*
%TD*%
%TO.P,D16,1*%
%TO.N,Net-(D16-Pad1)*%
X217678000Y-43180000D03*
%TD*%
%TO.P,D15,1*%
%TO.N,Net-(D15-Pad1)*%
X200152000Y-113284000D03*
%TD*%
%TO.P,D14,1*%
%TO.N,Net-(D14-Pad1)*%
X200152000Y-95758000D03*
%TD*%
%TO.P,D13,1*%
%TO.N,Net-(D13-Pad1)*%
X200152000Y-78232000D03*
%TD*%
%TO.P,D12,1*%
%TO.N,Net-(D12-Pad1)*%
X200152000Y-60706000D03*
%TD*%
%TO.P,D11,1*%
%TO.N,Net-(D11-Pad1)*%
X200152000Y-43180000D03*
%TD*%
%TO.P,D10,1*%
%TO.N,Net-(D10-Pad1)*%
X182626000Y-113284000D03*
%TD*%
%TO.P,D9,1*%
%TO.N,Net-(D9-Pad1)*%
X182626000Y-95758000D03*
%TD*%
%TO.P,D8,1*%
%TO.N,Net-(D8-Pad1)*%
X182626000Y-78232000D03*
%TD*%
%TO.P,D7,1*%
%TO.N,Net-(D7-Pad1)*%
X182626000Y-60706000D03*
%TD*%
%TO.P,D6,1*%
%TO.N,Net-(D6-Pad1)*%
X182626000Y-43180000D03*
%TD*%
%TO.P,D5,1*%
%TO.N,Net-(D5-Pad1)*%
X165100000Y-113284000D03*
%TD*%
%TO.P,D4,1*%
%TO.N,Net-(D4-Pad1)*%
X165100000Y-95758000D03*
%TD*%
%TO.P,D3,1*%
%TO.N,Net-(D3-Pad1)*%
X165100000Y-78232000D03*
%TD*%
%TO.P,D2,1*%
%TO.N,Net-(D2-Pad1)*%
X165100000Y-60706000D03*
%TD*%
%TO.P,D1,1*%
%TO.N,Net-(D1-Pad1)*%
X165100000Y-43180000D03*
%TD*%
D18*
%TO.N,GND*%
X225915001Y-64991999D02*
X225915001Y-66020591D01*
X223664999Y-64991999D02*
X224249999Y-64406999D01*
X223664999Y-76598999D02*
X223664999Y-64991999D01*
X225330001Y-64406999D02*
X225915001Y-64991999D01*
X224249999Y-64406999D02*
X225330001Y-64406999D01*
X230124000Y-83058000D02*
X223664999Y-76598999D01*
X231610001Y-72352001D02*
X232410000Y-73152000D01*
X231610001Y-71715591D02*
X231610001Y-72352001D01*
X225915001Y-66020591D02*
X231610001Y-71715591D01*
X205777999Y-95861003D02*
X205777999Y-91477999D01*
X204756001Y-96883001D02*
X205777999Y-95861003D01*
X203711997Y-96883001D02*
X204756001Y-96883001D01*
X201930000Y-98664998D02*
X203711997Y-96883001D01*
X201930000Y-102886000D02*
X201930000Y-98664998D01*
X201422000Y-103394000D02*
X201930000Y-102886000D01*
X205777999Y-91477999D02*
X204978000Y-90678000D01*
X201422000Y-104394000D02*
X201422000Y-103394000D01*
%TO.N,/A4*%
X198157999Y-66331999D02*
X197358000Y-65532000D01*
X198483001Y-66657001D02*
X198157999Y-66331999D01*
X198483001Y-75291999D02*
X198483001Y-66657001D01*
X198157999Y-75617001D02*
X198483001Y-75291999D01*
X198157999Y-82258001D02*
X198157999Y-75617001D01*
X197358000Y-83058000D02*
X198157999Y-82258001D01*
%TO.N,/A0*%
X200697999Y-66331999D02*
X199898000Y-65532000D01*
X201023001Y-66657001D02*
X200697999Y-66331999D01*
X201023001Y-73692001D02*
X201023001Y-66657001D01*
X198826999Y-75888003D02*
X201023001Y-73692001D01*
X198826999Y-81986999D02*
X198826999Y-75888003D01*
X199898000Y-83058000D02*
X198826999Y-81986999D01*
X234404001Y-82258001D02*
X234404001Y-80734001D01*
X235204000Y-83058000D02*
X234404001Y-82258001D01*
X228129999Y-73951999D02*
X227330000Y-73152000D01*
X228455001Y-74277001D02*
X228129999Y-73951999D01*
X229612003Y-74277001D02*
X228455001Y-74277001D01*
X233027001Y-77691999D02*
X229612003Y-74277001D01*
X233027001Y-79357001D02*
X233027001Y-77691999D01*
X234404001Y-80734001D02*
X233027001Y-79357001D01*
%TO.N,+5V*%
X203237999Y-66331999D02*
X202438000Y-65532000D01*
X203563001Y-73692001D02*
X203563001Y-66657001D01*
X203563001Y-66657001D02*
X203237999Y-66331999D01*
X202438000Y-74817002D02*
X203563001Y-73692001D01*
X202438000Y-83058000D02*
X202438000Y-74817002D01*
X208389001Y-59580999D02*
X203237999Y-64732001D01*
X214916001Y-59580999D02*
X208389001Y-59580999D01*
X215501001Y-74200001D02*
X215501001Y-60165999D01*
X194728008Y-84633010D02*
X205067992Y-84633010D01*
X193692999Y-83598001D02*
X194728008Y-84633010D01*
X203237999Y-64732001D02*
X202438000Y-65532000D01*
X215501001Y-60165999D02*
X214916001Y-59580999D01*
X205067992Y-84633010D02*
X215501001Y-74200001D01*
X193692999Y-82517999D02*
X193692999Y-83598001D01*
X188612999Y-77437999D02*
X193692999Y-82517999D01*
X188612999Y-66946999D02*
X188612999Y-77437999D01*
X187198000Y-65532000D02*
X188612999Y-66946999D01*
X238428600Y-71550600D02*
X240030000Y-73152000D01*
X236525010Y-71550600D02*
X238428600Y-71550600D01*
X230995001Y-64991999D02*
X230995001Y-66020591D01*
X229959992Y-63956990D02*
X230995001Y-64991999D01*
X222160008Y-63956990D02*
X229959992Y-63956990D01*
X223303999Y-78128997D02*
X221124999Y-75949997D01*
X221124999Y-64991999D02*
X222160008Y-63956990D01*
X223303999Y-82258001D02*
X223303999Y-78128997D01*
X230995001Y-66020591D02*
X236525010Y-71550600D01*
X221124999Y-75949997D02*
X221124999Y-64991999D01*
X222504000Y-83058000D02*
X223303999Y-82258001D01*
%TO.N,/U4_A*%
X224244001Y-83857999D02*
X225044000Y-83058000D01*
X215501001Y-92600999D02*
X224244001Y-83857999D01*
X215501001Y-96298001D02*
X215501001Y-92600999D01*
X214916001Y-96883001D02*
X215501001Y-96298001D01*
X213835999Y-96883001D02*
X214916001Y-96883001D01*
X205740000Y-104979000D02*
X213835999Y-96883001D01*
X205740000Y-109220000D02*
X205740000Y-104979000D01*
%TO.N,/U4_B*%
X228709001Y-107979629D02*
X228709001Y-90137999D01*
X228600000Y-108088630D02*
X228709001Y-107979629D01*
X228600000Y-109220000D02*
X228600000Y-108088630D01*
X222504000Y-89628000D02*
X222504000Y-90678000D01*
X223029011Y-89102989D02*
X222504000Y-89628000D01*
X227673991Y-89102989D02*
X223029011Y-89102989D01*
X228709001Y-90137999D02*
X227673991Y-89102989D01*
%TO.N,/U4_C*%
X226060000Y-91694000D02*
X225044000Y-90678000D01*
X226060000Y-99060000D02*
X226060000Y-91694000D01*
%TO.N,/U4_D*%
X226784001Y-89878001D02*
X227584000Y-90678000D01*
X226458999Y-89552999D02*
X226784001Y-89878001D01*
X224503999Y-89552999D02*
X226458999Y-89552999D01*
X223629001Y-90427997D02*
X224503999Y-89552999D01*
X223629001Y-91768001D02*
X223629001Y-90427997D01*
X217863991Y-97533011D02*
X223629001Y-91768001D01*
X214886989Y-97533011D02*
X217863991Y-97533011D01*
X213360000Y-99060000D02*
X214886989Y-97533011D01*
%TO.N,/U2_F*%
X196558001Y-89878001D02*
X197358000Y-90678000D01*
X180449001Y-77974003D02*
X192027997Y-89552999D01*
X192027997Y-89552999D02*
X196232999Y-89552999D01*
X180449001Y-44559001D02*
X180449001Y-77974003D01*
X196232999Y-89552999D02*
X196558001Y-89878001D01*
X179070000Y-43180000D02*
X180449001Y-44559001D01*
%TO.N,/U2_E*%
X194018001Y-91477999D02*
X194818000Y-90678000D01*
X186137999Y-91803001D02*
X193692999Y-91803001D01*
X178198999Y-83864001D02*
X186137999Y-91803001D01*
X193692999Y-91803001D02*
X194018001Y-91477999D01*
X178198999Y-61831001D02*
X178198999Y-83864001D01*
X179324000Y-60706000D02*
X178198999Y-61831001D01*
%TO.N,/U1_E*%
X194018001Y-72352001D02*
X194818000Y-73152000D01*
X193403001Y-71737001D02*
X194018001Y-72352001D01*
X193403001Y-46626999D02*
X193403001Y-71737001D01*
X196850000Y-43180000D02*
X193403001Y-46626999D01*
%TO.N,/U1_F*%
X196558001Y-72352001D02*
X197358000Y-73152000D01*
X195943001Y-61612999D02*
X195943001Y-71737001D01*
X195943001Y-71737001D02*
X196558001Y-72352001D01*
X196850000Y-60706000D02*
X195943001Y-61612999D01*
%TO.N,/U1_D*%
X213576001Y-42380001D02*
X214376000Y-43180000D01*
X213050999Y-41854999D02*
X213576001Y-42380001D01*
X196509999Y-41854999D02*
X213050999Y-41854999D01*
X191152999Y-47211999D02*
X196509999Y-41854999D01*
X191152999Y-72026999D02*
X191152999Y-47211999D01*
X192278000Y-73152000D02*
X191152999Y-72026999D01*
%TO.N,/U1_C*%
X214376000Y-61837370D02*
X214376000Y-60706000D01*
X203563001Y-83598001D02*
X203563001Y-82517999D01*
X201897999Y-84183001D02*
X202978001Y-84183001D01*
X214376000Y-71705000D02*
X214376000Y-61837370D01*
X201023001Y-83308003D02*
X201897999Y-84183001D01*
X201023001Y-83598001D02*
X201023001Y-83308003D01*
X200438001Y-84183001D02*
X201023001Y-83598001D01*
X203563001Y-82517999D02*
X214376000Y-71705000D01*
X196817999Y-84183001D02*
X200438001Y-84183001D01*
X196232999Y-83598001D02*
X196817999Y-84183001D01*
X196232999Y-80778369D02*
X196232999Y-83598001D01*
X202978001Y-84183001D02*
X203563001Y-83598001D01*
X189738000Y-74283370D02*
X196232999Y-80778369D01*
X189738000Y-73152000D02*
X189738000Y-74283370D01*
%TO.N,/U1_B*%
X207524981Y-85083019D02*
X213576001Y-79031999D01*
X190863001Y-83308003D02*
X192638017Y-85083019D01*
X192638017Y-85083019D02*
X207524981Y-85083019D01*
X190863001Y-82517999D02*
X190863001Y-83308003D01*
X213576001Y-79031999D02*
X214376000Y-78232000D01*
X187924402Y-79579400D02*
X190863001Y-82517999D01*
X187924402Y-73878402D02*
X187924402Y-79579400D01*
X187198000Y-73152000D02*
X187924402Y-73878402D01*
%TO.N,/U1_A*%
X186657999Y-64406999D02*
X185420000Y-65644998D01*
X188612999Y-64406999D02*
X186657999Y-64406999D01*
X189738000Y-65532000D02*
X188612999Y-64406999D01*
X185420000Y-65644998D02*
X185420000Y-82308592D01*
X213576001Y-94958001D02*
X214376000Y-95758000D01*
X188323001Y-83308003D02*
X194117987Y-89102989D01*
X188323001Y-82517999D02*
X188323001Y-83308003D01*
X187738001Y-81932999D02*
X188323001Y-82517999D01*
X185795593Y-81932999D02*
X187738001Y-81932999D01*
X207720989Y-89102989D02*
X213576001Y-94958001D01*
X194117987Y-89102989D02*
X207720989Y-89102989D01*
X185420000Y-82308592D02*
X185795593Y-81932999D01*
%TO.N,/U3_H*%
X235546010Y-104971085D02*
X228558096Y-111958999D01*
X215175999Y-112484001D02*
X214376000Y-113284000D01*
X230664001Y-98934906D02*
X235546010Y-103816915D01*
X215701001Y-111958999D02*
X215175999Y-112484001D01*
X230664001Y-91803001D02*
X230664001Y-98934906D01*
X235546010Y-103816915D02*
X235546010Y-104971085D01*
X231249001Y-91218001D02*
X230664001Y-91803001D01*
X228558096Y-111958999D02*
X215701001Y-111958999D01*
X225915001Y-75724001D02*
X231249001Y-81058001D01*
X225915001Y-66657001D02*
X225915001Y-75724001D01*
X224790000Y-65532000D02*
X225915001Y-66657001D01*
X231249001Y-81058001D02*
X231249001Y-91218001D01*
%TO.N,/U3_F*%
X230669999Y-66331999D02*
X229870000Y-65532000D01*
X231902000Y-95758000D02*
X231902000Y-94626630D01*
X232701999Y-96557999D02*
X231902000Y-95758000D01*
X235996020Y-99852020D02*
X232701999Y-96557999D01*
X230651992Y-110501513D02*
X235996020Y-105157485D01*
X230651992Y-113698994D02*
X230651992Y-110501513D01*
X232012009Y-115059011D02*
X230651992Y-113698994D01*
X249954401Y-115059011D02*
X232012009Y-115059011D01*
X251003010Y-114010402D02*
X249954401Y-115059011D01*
X235996020Y-105157485D02*
X235996020Y-99852020D01*
X251003011Y-109975599D02*
X251003010Y-114010402D01*
X246675001Y-105647589D02*
X251003011Y-109975599D01*
X246675001Y-101499999D02*
X246675001Y-105647589D01*
X236529001Y-91353999D02*
X246675001Y-101499999D01*
X236075001Y-77141999D02*
X236529001Y-77595999D01*
X236075001Y-71737001D02*
X236075001Y-77141999D01*
X229870000Y-65532000D02*
X236075001Y-71737001D01*
X238869001Y-83598001D02*
X238869001Y-79935999D01*
X236529001Y-85938001D02*
X238869001Y-83598001D01*
X236529001Y-91353999D02*
X236529001Y-85938001D01*
X238869001Y-79935999D02*
X236529001Y-77595999D01*
%TO.N,/U3_G*%
X231102001Y-112484001D02*
X231902000Y-113284000D01*
X233789001Y-78778003D02*
X233789001Y-71991001D01*
X233789001Y-71991001D02*
X227330000Y-65532000D01*
X233789001Y-90928003D02*
X233789001Y-86138001D01*
X238142999Y-95282001D02*
X233789001Y-90928003D01*
X236329001Y-81318003D02*
X233789001Y-78778003D01*
X238142999Y-97751997D02*
X238142999Y-95282001D01*
X250553001Y-110161999D02*
X238142999Y-97751997D01*
X236329001Y-83598001D02*
X236329001Y-81318003D01*
X249768001Y-114609001D02*
X250553001Y-113824001D01*
X250553001Y-113824001D02*
X250553001Y-110161999D01*
X233227001Y-114609001D02*
X249768001Y-114609001D01*
X233789001Y-86138001D02*
X236329001Y-83598001D01*
X231902000Y-113284000D02*
X233227001Y-114609001D01*
%TO.N,/U4_H*%
X237744000Y-89916000D02*
X237744000Y-90678000D01*
X249428000Y-78232000D02*
X237744000Y-89916000D01*
%TO.N,/U4_F*%
X248628001Y-112484001D02*
X249428000Y-113284000D01*
X248628001Y-112286999D02*
X248628001Y-112484001D01*
X236529001Y-94543001D02*
X236529001Y-100187999D01*
X236529001Y-100187999D02*
X248628001Y-112286999D01*
X232664000Y-90678000D02*
X236529001Y-94543001D01*
%TO.N,Net-(Q1-Pad2)*%
X233426000Y-104394000D02*
X233680000Y-104140000D01*
X233426000Y-105394000D02*
X233426000Y-104394000D01*
X233426000Y-106454685D02*
X233426000Y-105394000D01*
X229535684Y-110345001D02*
X233426000Y-106454685D01*
X217025001Y-110345001D02*
X229535684Y-110345001D01*
X215900000Y-109220000D02*
X217025001Y-110345001D01*
%TO.N,Net-(Q2-Pad2)*%
X223266000Y-105394000D02*
X223266000Y-104394000D01*
X223266000Y-105525370D02*
X223266000Y-105394000D01*
X219571370Y-109220000D02*
X223266000Y-105525370D01*
X218440000Y-109220000D02*
X219571370Y-109220000D01*
%TO.N,Net-(Q3-Pad2)*%
X212852000Y-102108000D02*
X215900000Y-99060000D01*
X212852000Y-104394000D02*
X212852000Y-102108000D01*
%TO.N,Net-(Q4-Pad2)*%
X202692000Y-99568000D02*
X203200000Y-99060000D01*
X202692000Y-104394000D02*
X202692000Y-99568000D01*
%TD*%
M02*
