%TF.GenerationSoftware,KiCad,Pcbnew,5.1.5+dfsg1-2build2*%
%TF.CreationDate,2021-08-10T12:38:12+02:00*%
%TF.ProjectId,ledcube_5,6c656463-7562-4655-9f35-2e6b69636164,rev?*%
%TF.SameCoordinates,Original*%
%TF.FileFunction,Soldermask,Bot*%
%TF.FilePolarity,Negative*%
%FSLAX46Y46*%
G04 Gerber Fmt 4.6, Leading zero omitted, Abs format (unit mm)*
G04 Created by KiCad (PCBNEW 5.1.5+dfsg1-2build2) date 2021-08-10 12:38:12*
%MOMM*%
%LPD*%
G04 APERTURE LIST*
%ADD10C,2.700000*%
%ADD11O,1.600000X1.600000*%
%ADD12C,1.600000*%
%ADD13O,1.700000X1.700000*%
%ADD14R,1.700000X1.700000*%
%ADD15R,1.600000X1.600000*%
%ADD16C,2.000000*%
%ADD17R,1.050000X1.500000*%
%ADD18O,1.050000X1.500000*%
G04 APERTURE END LIST*
D10*
%TO.C,REF\002A\002A*%
X254000000Y-117602000D03*
%TD*%
%TO.C,REF\002A\002A*%
X160528000Y-117856000D03*
%TD*%
%TO.C,REF\002A\002A*%
X160528000Y-38608000D03*
%TD*%
%TO.C,REF\002A\002A*%
X254000000Y-38608000D03*
%TD*%
D11*
%TO.C,R30*%
X190500000Y-99060000D03*
D12*
X200660000Y-99060000D03*
%TD*%
D11*
%TO.C,R29*%
X203200000Y-99060000D03*
D12*
X213360000Y-99060000D03*
%TD*%
D11*
%TO.C,R28*%
X215900000Y-99060000D03*
D12*
X226060000Y-99060000D03*
%TD*%
D11*
%TO.C,R27*%
X218440000Y-109220000D03*
D12*
X228600000Y-109220000D03*
%TD*%
D11*
%TO.C,R26*%
X215900000Y-109220000D03*
D12*
X205740000Y-109220000D03*
%TD*%
D13*
%TO.C,J1*%
X248666000Y-92202000D03*
X248666000Y-89662000D03*
X248666000Y-87122000D03*
X248666000Y-84582000D03*
D14*
X248666000Y-82042000D03*
%TD*%
D11*
%TO.C,U1*%
X187198000Y-65532000D03*
X204978000Y-73152000D03*
X189738000Y-65532000D03*
X202438000Y-73152000D03*
X192278000Y-65532000D03*
X199898000Y-73152000D03*
X194818000Y-65532000D03*
X197358000Y-73152000D03*
X197358000Y-65532000D03*
X194818000Y-73152000D03*
X199898000Y-65532000D03*
X192278000Y-73152000D03*
X202438000Y-65532000D03*
X189738000Y-73152000D03*
X204978000Y-65532000D03*
D15*
X187198000Y-73152000D03*
%TD*%
D16*
%TO.C,J6*%
X249400000Y-102870000D03*
%TD*%
%TO.C,J5*%
X245350000Y-106920000D03*
%TD*%
%TO.C,J4*%
X245350000Y-102870000D03*
%TD*%
%TO.C,J3*%
X241300000Y-106920000D03*
%TD*%
%TO.C,J2*%
X241300000Y-102870000D03*
%TD*%
D11*
%TO.C,R25*%
X239268000Y-113284000D03*
D12*
X249428000Y-113284000D03*
%TD*%
D11*
%TO.C,R24*%
X239268000Y-95758000D03*
D12*
X249428000Y-95758000D03*
%TD*%
D11*
%TO.C,R23*%
X239268000Y-78232000D03*
D12*
X249428000Y-78232000D03*
%TD*%
D11*
%TO.C,R22*%
X239268000Y-60706000D03*
D12*
X249428000Y-60706000D03*
%TD*%
D11*
%TO.C,R21*%
X239268000Y-43180000D03*
D12*
X249428000Y-43180000D03*
%TD*%
D11*
%TO.C,R20*%
X221742000Y-113284000D03*
D12*
X231902000Y-113284000D03*
%TD*%
D11*
%TO.C,R19*%
X221742000Y-95758000D03*
D12*
X231902000Y-95758000D03*
%TD*%
D11*
%TO.C,R18*%
X221742000Y-78232000D03*
D12*
X231902000Y-78232000D03*
%TD*%
D11*
%TO.C,R17*%
X221742000Y-60706000D03*
D12*
X231902000Y-60706000D03*
%TD*%
D11*
%TO.C,R16*%
X221742000Y-43180000D03*
D12*
X231902000Y-43180000D03*
%TD*%
D11*
%TO.C,R15*%
X204216000Y-113284000D03*
D12*
X214376000Y-113284000D03*
%TD*%
D11*
%TO.C,R14*%
X204216000Y-95758000D03*
D12*
X214376000Y-95758000D03*
%TD*%
D11*
%TO.C,R13*%
X204216000Y-78232000D03*
D12*
X214376000Y-78232000D03*
%TD*%
D11*
%TO.C,R12*%
X204216000Y-60706000D03*
D12*
X214376000Y-60706000D03*
%TD*%
D11*
%TO.C,R11*%
X204216000Y-43180000D03*
D12*
X214376000Y-43180000D03*
%TD*%
%TO.C,R10*%
X196850000Y-113284000D03*
D11*
X186690000Y-113284000D03*
%TD*%
%TO.C,R9*%
X186690000Y-95758000D03*
D12*
X196850000Y-95758000D03*
%TD*%
D11*
%TO.C,R8*%
X186690000Y-78232000D03*
D12*
X196850000Y-78232000D03*
%TD*%
D11*
%TO.C,R7*%
X186690000Y-60706000D03*
D12*
X196850000Y-60706000D03*
%TD*%
D11*
%TO.C,R6*%
X186690000Y-43180000D03*
D12*
X196850000Y-43180000D03*
%TD*%
D11*
%TO.C,R5*%
X169164000Y-113284000D03*
D12*
X179324000Y-113284000D03*
%TD*%
D11*
%TO.C,R4*%
X169164000Y-95758000D03*
D12*
X179324000Y-95758000D03*
%TD*%
D11*
%TO.C,R3*%
X169164000Y-78232000D03*
D12*
X179324000Y-78232000D03*
%TD*%
D11*
%TO.C,R2*%
X169164000Y-60706000D03*
D12*
X179324000Y-60706000D03*
%TD*%
D11*
%TO.C,R1*%
X168910000Y-43180000D03*
D12*
X179070000Y-43180000D03*
%TD*%
D11*
%TO.C,U4*%
X222504000Y-83058000D03*
X240284000Y-90678000D03*
X225044000Y-83058000D03*
X237744000Y-90678000D03*
X227584000Y-83058000D03*
X235204000Y-90678000D03*
X230124000Y-83058000D03*
X232664000Y-90678000D03*
X232664000Y-83058000D03*
X230124000Y-90678000D03*
X235204000Y-83058000D03*
X227584000Y-90678000D03*
X237744000Y-83058000D03*
X225044000Y-90678000D03*
X240284000Y-83058000D03*
D15*
X222504000Y-90678000D03*
%TD*%
D11*
%TO.C,U3*%
X240030000Y-73152000D03*
X222250000Y-65532000D03*
X237490000Y-73152000D03*
X224790000Y-65532000D03*
X234950000Y-73152000D03*
X227330000Y-65532000D03*
X232410000Y-73152000D03*
X229870000Y-65532000D03*
X229870000Y-73152000D03*
X232410000Y-65532000D03*
X227330000Y-73152000D03*
X234950000Y-65532000D03*
X224790000Y-73152000D03*
X237490000Y-65532000D03*
X222250000Y-73152000D03*
D15*
X240030000Y-65532000D03*
%TD*%
D11*
%TO.C,U2*%
X187198000Y-83058000D03*
X204978000Y-90678000D03*
X189738000Y-83058000D03*
X202438000Y-90678000D03*
X192278000Y-83058000D03*
X199898000Y-90678000D03*
X194818000Y-83058000D03*
X197358000Y-90678000D03*
X197358000Y-83058000D03*
X194818000Y-90678000D03*
X199898000Y-83058000D03*
X192278000Y-90678000D03*
X202438000Y-83058000D03*
X189738000Y-90678000D03*
X204978000Y-83058000D03*
D15*
X187198000Y-90678000D03*
%TD*%
D17*
%TO.C,Q5*%
X191262000Y-104394000D03*
D18*
X193802000Y-104394000D03*
X192532000Y-104394000D03*
%TD*%
D17*
%TO.C,Q4*%
X201422000Y-104394000D03*
D18*
X203962000Y-104394000D03*
X202692000Y-104394000D03*
%TD*%
D17*
%TO.C,Q3*%
X211582000Y-104394000D03*
D18*
X214122000Y-104394000D03*
X212852000Y-104394000D03*
%TD*%
D17*
%TO.C,Q2*%
X221996000Y-104394000D03*
D18*
X224536000Y-104394000D03*
X223266000Y-104394000D03*
%TD*%
D17*
%TO.C,Q1*%
X232156000Y-104394000D03*
D18*
X234696000Y-104394000D03*
X233426000Y-104394000D03*
%TD*%
D16*
%TO.C,D25*%
X235204000Y-113284000D03*
%TD*%
%TO.C,D24*%
X235204000Y-95758000D03*
%TD*%
%TO.C,D23*%
X235204000Y-78232000D03*
%TD*%
%TO.C,D22*%
X235204000Y-60706000D03*
%TD*%
%TO.C,D21*%
X235204000Y-43180000D03*
%TD*%
%TO.C,D20*%
X217678000Y-113284000D03*
%TD*%
%TO.C,D19*%
X217678000Y-95758000D03*
%TD*%
%TO.C,D18*%
X217678000Y-78232000D03*
%TD*%
%TO.C,D17*%
X217678000Y-60706000D03*
%TD*%
%TO.C,D16*%
X217678000Y-43180000D03*
%TD*%
%TO.C,D15*%
X200152000Y-113284000D03*
%TD*%
%TO.C,D14*%
X200152000Y-95758000D03*
%TD*%
%TO.C,D13*%
X200152000Y-78232000D03*
%TD*%
%TO.C,D12*%
X200152000Y-60706000D03*
%TD*%
%TO.C,D11*%
X200152000Y-43180000D03*
%TD*%
%TO.C,D10*%
X182626000Y-113284000D03*
%TD*%
%TO.C,D9*%
X182626000Y-95758000D03*
%TD*%
%TO.C,D8*%
X182626000Y-78232000D03*
%TD*%
%TO.C,D7*%
X182626000Y-60706000D03*
%TD*%
%TO.C,D6*%
X182626000Y-43180000D03*
%TD*%
%TO.C,D5*%
X165100000Y-113284000D03*
%TD*%
%TO.C,D4*%
X165100000Y-95758000D03*
%TD*%
%TO.C,D3*%
X165100000Y-78232000D03*
%TD*%
%TO.C,D2*%
X165100000Y-60706000D03*
%TD*%
%TO.C,D1*%
X165100000Y-43180000D03*
%TD*%
M02*
